# xmcd
#
# Track frame offsets:
#	182
#	13447
#	27742
#	46595
#	63665
#	84097
#	100865
#	118887
#	131815
#	150580
#
# Disc length: 2226
#
# Revision: 2
# Processed by: cddbd v1.5.1PL0 Copyright (c) Steve Scherf et al.
# Submitted via: CDex 1.50beta9
# Normalized: r1:TDELIM( - )
#
DISCID=8308b00a
DTITLE=Various Artist - Country's Leading Ladies
DYEAR=1993
DGENRE=Country
TTITLE0=Lorrie Morgan - Except For Monday
TTITLE1=Pam Tillis - Shake The Sugar Tree
TTITLE2=Tanya Tucker - Two Sparrows In A Hurricane
TTITLE3=Emmylou Harris - Born To Run
TTITLE4=Suzy Bogguss - Letting Go
TTITLE5=Carlene Carter - I Fell In Love
TTITLE6=Michelle Wright - Take It Like A Man
TTITLE7=Kathy Mattea - Lonesome Standard Time
TTITLE8=Deborah Allen - Rock Me (In The Cradle Of Love)
TTITLE9=Holly Dunn - Golden Years
EXTD=YEAR: 1993
EXTT0=
EXTT1=
EXTT2=
EXTT3=
EXTT4=
EXTT5=
EXTT6=
EXTT7=
EXTT8=
EXTT9=
PLAYORDER=
